<?xml version="1.0" encoding="utf-8"?>
<!-- Generator: Adobe Illustrator 18.0.0, SVG Export Plug-In . SVG Version: 6.00 Build 0)  -->
<!DOCTYPE svg PUBLIC "-//W3C//DTD SVG 1.1//EN" "http://www.w3.org/Graphics/SVG/1.1/DTD/svg11.dtd">
<svg version="1.1" id="Layer_1" xmlns="http://www.w3.org/2000/svg" xmlns:xlink="http://www.w3.org/1999/xlink" x="0px" y="0px"
	 width="100px" height="100px" viewBox="0 0 100 100" enable-background="new 0 0 100 100" xml:space="preserve">
<polygon fill="#E7DDD3" points="66,41 66,34.7 66,33.7 65,33.7 58.7,33.7 58.7,41 "/>
<path fill="#E7DDD3" d="M49.5,57.8c4.2,0,7.6-3.4,7.6-7.6c0-1.6-0.5-3.2-1.4-4.4c-1.4-1.9-3.6-3.2-6.1-3.2c-2.5,0-4.8,1.2-6.1,3.2
	c-0.9,1.2-1.4,2.8-1.4,4.4C41.9,54.4,45.3,57.8,49.5,57.8z"/>
<path fill="#E7DDD3" d="M50,0C22.4,0,0,22.4,0,50s22.4,50,50,50c27.6,0,50-22.4,50-50S77.6,0,50,0z M71,45.8v17.6
	c0,4.6-3.7,8.3-8.3,8.3H36.3c-4.6,0-8.3-3.7-8.3-8.3V45.8v-8.8c0-4.6,3.7-8.3,8.3-8.3h26.3c4.6,0,8.3,3.7,8.3,8.3V45.8z"/>
<path fill="#E7DDD3" d="M61.2,50.2C61.2,56.7,56,62,49.5,62s-11.7-5.3-11.7-11.7c0-1.6,0.3-3,0.9-4.4h-6.4v17.6
	c0,2.3,1.8,4.1,4.1,4.1h26.3c2.3,0,4.1-1.8,4.1-4.1V45.8h-6.4C60.9,47.2,61.2,48.7,61.2,50.2z"/>
<path fill="#E7DDD3" d="M49.5,57.8c4.2,0,7.6-3.4,7.6-7.6c0-1.6-0.5-3.2-1.4-4.4c-1.4-1.9-3.6-3.2-6.1-3.2c-2.5,0-4.8,1.2-6.1,3.2
	c-0.9,1.2-1.4,2.8-1.4,4.4C41.9,54.4,45.3,57.8,49.5,57.8z"/>
<polygon fill="#E7DDD3" points="66,41 66,34.7 66,33.7 65,33.7 58.7,33.7 58.7,41 "/>
<path fill="#E7DDD3" d="M61.2,50.2C61.2,56.7,56,62,49.5,62s-11.7-5.3-11.7-11.7c0-1.6,0.3-3,0.9-4.4h-6.4v17.6
	c0,2.3,1.8,4.1,4.1,4.1h26.3c2.3,0,4.1-1.8,4.1-4.1V45.8h-6.4C60.9,47.2,61.2,48.7,61.2,50.2z"/>
</svg>
