<?xml version="1.0" encoding="utf-8"?>
<!-- Generator: Adobe Illustrator 16.0.0, SVG Export Plug-In . SVG Version: 6.00 Build 0)  -->
<!DOCTYPE svg PUBLIC "-//W3C//DTD SVG 1.1//EN" "http://www.w3.org/Graphics/SVG/1.1/DTD/svg11.dtd">
<svg version="1.1" id="Layer_1" xmlns="http://www.w3.org/2000/svg" xmlns:xlink="http://www.w3.org/1999/xlink" x="0px" y="0px"
	 width="100px" height="100px" viewBox="0 0 100 100" enable-background="new 0 0 100 100" xml:space="preserve">
<path fill="#FDA013" d="M50,0C22.386,0,0,22.386,0,50s22.386,50,50,50c27.613,0,50-22.386,50-50S77.613,0,50,0z M35.379,70.782
	h-0.02c-3.111,0-5.646-2.531-5.658-5.642c-0.002-3.119,2.529-5.668,5.646-5.68c3.133,0,5.669,2.529,5.673,5.641
	C41.03,68.221,38.502,70.768,35.379,70.782z M51.874,70.718c-0.401-11.854-9.782-20.759-22.214-21.064l-0.02-7.672
	c16.59,0.357,29.486,12.782,29.917,28.711L51.874,70.718z M67.979,70.658C67.533,49.977,50.869,33.84,29.617,33.553l-0.021-7.674
	C55.152,26.154,75.201,45.65,75.66,70.625L67.979,70.658z"/>
</svg>
